PathFileType	4	(X/Y/Z)	Kaydara																																																																																																																									
DataRate	CameraRate	NumFrames	NumMarkers	Units	OrigDataRate	OrigDataStartFrame	OrigNumFrames																																																																																																																					
30	30	6	41	mm	30	3	321																																																																																																																					
Frame#	Time	PAIB_LFHD			PAIB_RFHD			PAIB_LBHD			PAIB_RBHD			PAIB_LFTShould			PAIB_RFTShould			PAIB_LRRShould			PAIB_RRRShould			PAIB_T10			PAIB_STRN			PAIB_TRUN			PAIB_LSHO			PAIB_LUPA			PAIB_LELB			PAIB_LFRM			PAIB_LWRA			PAIB_LWRB			PAIB_LFIN			PAIB_RSHO			PAIB_RUPA			PAIB_RELB			PAIB_RFRM			PAIB_RWRA			PAIB_RWRB			PAIB_RFIN			PAIB_LFWT			PAIB_RFWT			PAIB_LBWT			PAIB_RBWT			PAIB_LTHI			PAIB_LKNE			PAIB_LSHN			PAIB_LANK			PAIB_LHEE			PAIB_LTOE			PAIB_RTHI			PAIB_RKNE			PAIB_RSHN			PAIB_RANK			PAIB_RHEE			PAIB_RTOE		
		X1	Y1	Z1	X2	Y2	Z2	X3	Y3	Z3	X4	Y4	Z4	X5	Y5	Z5	X6	Y6	Z6	X7	Y7	Z7	X8	Y8	Z8	X9	Y9	Z9	X10	Y10	Z10	X11	Y11	Z11	X12	Y12	Z12	X13	Y13	Z13	X14	Y14	Z14	X15	Y15	Z15	X16	Y16	Z16	X17	Y17	Z17	X18	Y18	Z18	X19	Y19	Z19	X20	Y20	Z20	X21	Y21	Z21	X22	Y22	Z22	X23	Y23	Z23	X24	Y24	Z24	X25	Y25	Z25	X26	Y26	Z26	X27	Y27	Z27	X28	Y28	Z28	X29	Y29	Z29	X30	Y30	Z30	X31	Y31	Z31	X32	Y32	Z32	X33	Y33	Z33	X34	Y34	Z34	X35	Y35	Z35	X36	Y36	Z36	X37	Y37	Z37	X38	Y38	Z38	X39	Y39	Z39	X40	Y40	Z40	X41	Y41	Z41
																																																																																																																												
1	0.06	240.09312	1637.68127	-1899.00909	56.62526	1646.94382	-1908.7709	256.51693	1670.8168	-2024.31747	53.63576	1686.40808	-2017.99011	213.39157	1422.2464	-1988.60977	90.83447	1420.32486	-1987.52411	223.15641	1486.96014	-2129.18701	66.48229	1486.60553	-2119.3454	141.02382	1329.79874	-2206.67557	160.1416	1356.74042	-1951.16714	159.27185	1255.18311	-1929.04572	343.78265	1427.61765	-2058.72604	387.8717	1198.05519	-2042.68829	402.78137	1107.70218	-2074.20135	411.84624	997.21992	-2021.22345	340.84423	894.12132	-1932.6091	384.20475	867.6236	-1991.77826	389.55772	837.78084	-1926.04401	-38.83759	1419.88312	-2032.59674	-99.84302	1241.82999	-2056.08856	-116.53958	1121.58951	-2057.90527	-116.87738	987.45689	-2013.59039	-32.1882	895.8403	-1923.78525	-106.75554	874.25003	-1955.43945	-82.67427	845.02556	-1890.35187	259.74813	973.93227	-1953.03452	22.90656	976.61697	-1948.02719	193.53657	1025.11063	-2167.69012	49.43563	1028.14781	-2160.94437	244.54165	746.11649	-2161.40137	286.95862	496.5802	-2066.54205	272.61627	311.14635	-2065.02838	278.1806	129.84662	-2157.1579	223.04674	119.34978	-2205.64819	271.66698	74.979	-1985.72052	-3.82299	728.86978	-2154.16901	-4.80524	486.32362	-2077.0459	56.4775	302.87439	-2066.15204	29.48963	104.54231	-2156.59943	93.36345	112.7389	-2205.84259	46.25676	76.89794	-1982.26593
2	0.093	240.38126	1637.60941	-1898.41812	56.92616	1646.85822	-1908.20068	256.83193	1670.80338	-2023.72696	53.86528	1686.34811	-2017.38647	213.83265	1422.25388	-1988.54797	91.07101	1420.42191	-1987.04376	223.44534	1487.24609	-2128.87939	66.82679	1486.77994	-2118.93524	141.31681	1330.12863	-2206.54312	160.49704	1356.69693	-1951.01761	159.89285	1255.16312	-1929.02817	344.13239	1427.92953	-2058.63968	386.01322	1196.96266	-2041.04874	402.77233	1107.98904	-2074.47708	411.63063	997.30499	-2021.44989	340.61966	894.17442	-1933.0777	383.96107	867.84279	-1992.26151	389.31755	837.92435	-1926.55136	-38.46236	1419.9202	-2032.20383	-99.39218	1241.88881	-2055.83649	-116.15817	1121.74759	-2057.89566	-116.31546	987.4929	-2013.57574	-31.47869	895.64171	-1924.00452	-106.10186	874.14406	-1955.48401	-81.85567	844.92104	-1890.55786	260.21675	974.01497	-1953.38852	23.39408	976.5728	-1948.23547	193.80575	1025.44495	-2167.90665	49.78286	1028.34869	-2161.03241	244.46739	746.33438	-2161.94382	287.25739	496.77559	-2067.10938	272.81305	311.33196	-2065.34622	278.74418	129.49382	-2158.54858	222.9151	119.48919	-2205.72205	271.71795	74.98976	-1985.76614	-3.56839	729.00085	-2154.47632	-4.56518	486.41182	-2077.22504	56.61038	302.96886	-2066.21979	30.46872	104.46968	-2156.37192	93.42875	112.72926	-2205.84961	46.25663	76.91681	-1982.27966
3	0.127	240.66469	1637.44659	-1897.8598	57.21362	1646.65848	-1907.55905	257.1909	1670.83344	-2023.06473	54.12072	1686.33759	-2016.73233	214.01117	1422.73575	-1987.18109	91.41347	1420.35294	-1986.58051	223.68799	1487.44629	-2128.53821	67.06448	1486.85242	-2118.43353	141.53118	1330.40771	-2206.31927	161.07998	1356.6394	-1950.7869	160.32352	1255.03494	-1928.89816	344.51401	1428.10837	-2058.47198	386.563	1197.10533	-2041.42731	403.01304	1108.09372	-2074.87183	411.6943	997.36801	-2021.83914	340.45319	894.56703	-1933.32352	383.69411	867.95517	-1992.50397	389.05502	838.09563	-1926.79199	-38.09999	1419.87152	-2031.78848	-99.09491	1241.86325	-2055.62317	-115.90778	1121.75812	-2057.81433	-115.89476	987.44537	-2013.52036	-30.88485	895.69435	-1923.87543	-105.54643	874.09912	-1955.42969	-81.28679	844.88541	-1890.45059	260.70189	974.03481	-1953.67249	23.9129	976.66084	-1948.24219	194.05788	1025.70618	-2168.11325	50.0443	1028.54309	-2161.11588	244.36594	746.54099	-2162.40768	287.68593	496.91296	-2067.92099	273.02059	311.32977	-2065.78308	278.71189	129.17742	-2159.01901	222.79045	119.30503	-2205.6041	271.72497	75.00368	-1985.77377	-3.2066	729.06769	-2154.66705	-4.4018	486.46698	-2077.61169	56.73925	302.99152	-2066.39175	30.61162	104.53922	-2156.38321	93.50805	112.71405	-2205.8699	46.24974	76.92026	-1982.28546
4	0.16	240.82191	1637.23465	-1897.17773	57.3091	1646.4621	-1907.03705	257.28159	1670.84229	-2022.39594	54.36833	1686.26526	-2016.0614	214.29234	1422.65854	-1986.74545	91.73188	1420.26657	-1986.11191	223.96469	1487.509	-2128.06396	67.34103	1486.89072	-2117.95502	141.69327	1330.63843	-2206.02203	161.39999	1356.51352	-1950.54352	160.70454	1254.85023	-1928.83881	344.8769	1428.07526	-2058.1987	387.03712	1198.93333	-2046.09924	403.48721	1108.06824	-2075.16022	411.94954	997.31102	-2022.05963	340.41954	894.80042	-1933.38867	383.62297	867.97409	-1992.58224	388.913	838.16551	-1926.85013	-37.74834	1419.73373	-2031.25214	-98.80643	1241.80542	-2055.3125	-115.65859	1121.69411	-2057.56912	-115.61685	987.36557	-2013.38531	-30.46786	895.63606	-1923.71674	-105.17221	873.98727	-1955.24826	-80.96951	844.80278	-1890.36057	261.03338	973.92441	-1953.94653	24.26252	976.58325	-1948.37402	194.28427	1025.83595	-2168.32321	50.30762	1028.57498	-2161.2027	244.45772	746.59912	-2162.75192	287.7738	497.04025	-2068.36304	273.1568	311.39715	-2066.08566	278.76917	129.05075	-2159.21921	222.81864	119.22634	-2205.69305	271.7532	74.99461	-1985.81772	-2.95168	729.08577	-2154.75861	-4.21966	486.49273	-2077.72141	56.78541	302.99595	-2066.41968	30.56302	104.62442	-2156.48758	93.52218	112.68614	-2205.85724	46.24931	76.91861	-1982.28119
5	0.193	241.01936	1637.09915	-1896.5947	57.69238	1646.12854	-1906.38977	257.48529	1670.83862	-2021.75461	54.56739	1686.11603	-2015.4451	214.73301	1422.18216	-1987.12357	92.1744	1420.12299	-1985.85266	224.21801	1487.55493	-2127.63962	67.60853	1486.98013	-2117.46536	141.90091	1330.8223	-2205.81024	161.71925	1356.2735	-1950.25116	161.09779	1254.60991	-1928.6705	345.11818	1428.02963	-2057.86087	387.29542	1198.86826	-2045.99487	403.9246	1108.03017	-2075.0853	412.27154	997.24953	-2021.97433	340.53127	894.84146	-1933.41599	383.85406	867.9641	-1992.55875	388.97495	838.15102	-1926.78574	-37.44507	1419.73602	-2030.81558	-98.47335	1241.76712	-2054.78317	-115.31601	1121.62918	-2057.04407	-115.33992	987.32376	-2012.99698	-30.16394	895.45532	-1923.63617	-104.95909	873.87009	-1955.02838	-80.60971	844.63112	-1890.13519	261.43637	973.97781	-1953.91388	24.60984	976.60393	-1948.39966	194.53077	1025.8696	-2168.39249	50.5425	1028.62663	-2161.26312	244.79538	746.60568	-2163.00323	287.85032	496.9762	-2068.5434	273.25275	311.4613	-2066.27533	278.79089	129.07557	-2159.12125	222.83796	119.20889	-2205.72159	271.77521	75.00687	-1985.83313	-2.94173	729.17496	-2154.95026	-3.9964	486.54808	-2077.61276	56.88612	303.08064	-2066.45935	30.78663	104.57774	-2156.41556	93.5838	112.68567	-2205.86853	46.23562	76.91573	-1982.28775
6	0.227	241.30486	1636.97144	-1896.0408	57.96824	1645.97153	-1905.74646	257.6877	1670.86365	-2021.14288	54.80963	1686.06354	-2014.85596	215.30859	1422.1022	-1987.03873	92.60119	1419.9617	-1985.67764	224.50022	1487.71729	-2127.22427	67.85616	1487.05185	-2116.99432	142.11588	1331.04416	-2205.56061	161.93523	1356.15875	-1949.98398	161.37672	1254.51241	-1928.52585	345.38963	1428.0423	-2057.46384	387.34303	1198.77396	-2045.80719	404.16924	1108.11676	-2074.79248	412.5362	997.30019	-2021.77231	340.89748	894.59602	-1933.40393	384.26918	867.96341	-1992.53448	389.38534	838.11348	-1926.82465	-37.08195	1419.70413	-2030.32898	-98.12927	1241.78917	-2054.22928	-115.04013	1121.77208	-2056.69205	-115.14525	987.37663	-2012.64816	-29.96229	895.33989	-1923.48938	-104.7724	873.843	-1954.72855	-80.35568	844.53339	-1889.86923	261.55964	973.9563	-1953.99353	24.79758	976.63521	-1948.35266	194.77203	1025.92598	-2168.36197	50.77779	1028.66661	-2161.20407	244.98899	746.67747	-2163.1076	288.00293	497.04609	-2068.73657	273.30858	311.49847	-2066.4006	278.78597	129.06528	-2159.25858	222.82812	119.20527	-2205.73746	271.78024	75.00622	-1985.8429	-2.74721	729.29893	-2155.12604	-3.81275	486.57097	-2077.75208	56.97814	303.09019	-2066.58966	30.75584	104.63756	-2156.38626	93.60892	112.68774	-2205.86807	46.24941	76.93525	-1982.27676
